Exact Audio Copy V0.99 prebeta 1 from 25. May 2007

EAC 抓取日志文件从29. 十一月 2010, 0:25

德德玛 / 20世纪中华歌坛名人百集珍藏版

使用驱动器  ：BENQ    DVD-ROM 16X   Adapter: 0  ID: 1

读取模式     : 保护
使用精确流   : 是
废除音频缓冲 : 是
使用 C2 指针 : 否

读取偏移校正                   : 738
读取 Lead-In 和 Lead-Out       : 否
用静音填充抓取中丢失偏移的采样 : 是
去除首尾静音块                 : 否
已用接口                       : Win NT 及 2000 本地 Win32 接口

所用输出格式 : 内部 WAV 函数
样本格式     : 44.100 Hz;16 Bit;立体声


被抓轨 CD 的 TOC

     音轨 |   开始   |   长度   | 起始扇区 | 结尾扇区 
    --------------------------------------------------
       1  |  0:00.00 |  4:29.27 |       0  |   20201  
       2  |  4:29.27 |  3:19.53 |   20202  |   35179  
       3  |  7:49.05 |  4:41.60 |   35180  |   56314  
       4  | 12:30.65 |  5:32.45 |   56315  |   81259  
       5  | 18:03.35 |  5:15.67 |   81260  |  104951  
       6  | 23:19.27 |  4:50.13 |  104952  |  126714  
       7  | 28:09.40 |  3:16.65 |  126715  |  141479  
       8  | 31:26.30 |  5:37.62 |  141480  |  166816  
       9  | 37:04.17 |  4:01.73 |  166817  |  184964  
      10  | 41:06.15 |  3:46.50 |  184965  |  201964  
      11  | 44:52.65 |  5:16.25 |  201965  |  225689  
      12  | 50:09.15 |  4:13.65 |  225690  |  244729  


范围状态及错误

已选择范围

     文件名 E:\文件夹\20世纪中华歌坛名人百集珍藏版-德德玛[lwg188原创]\德德玛 - 20世纪中华歌坛名人百集珍藏版.wav

     峰值电平 100.0 %
     范围质量 100.0 %
     复制 CRC D9B8B159
     复制成功

没有错误发生

状态报告结尾
